<svg xmlns="http://www.w3.org/2000/svg" viewBox="0 0 100 100">
  <path fill="#5382A1" d="M37.8,31c2.1-4.7,5.1-5,7.5-5.3c-2.4,5-5.4,7.8-8.1,10.6c-2.7,2.8-5.7,5.6-5.7,11.2 c0,5.6,3.6,10.1,9.3,11.8c-2.1,0.3-6.6-0.3-9.3-4.2c-2.7-3.9-3-9-0.9-14.1H37.8z"/>
  <path fill="#5382A1" d="M54.6,26.5c1.8-4.2,4.8-4.2,6.9-4.2c-2.1,3.9-4.8,6.1-7.2,8.4c-2.4,2.3-5.1,4.2-5.1,8.7c0,4.5,2.7,8.1,7.5,9 c-1.5,0.3-5.1-0.3-7.5-3.6c-2.4-3.3-2.1-7.2-0.3-11.4H54.6z"/>
  <path fill="#EA2D2E" d="M33,63.4c-2.1-0.6-2.1-0.6-5.1-1.2c-1.5-0.3-2.1,0.3-1.8,1.2c0.3,0.9,1.2,1.5,3,1.8c2.1,0.3,4.5,0.6,6.6,0.9 c1.2,0,1.5-0.6,1.2-1.2C36.6,64,35.1,63.7,33,63.4z M40.8,59.2c-2.4-0.6-4.5-0.9-6.9-1.2c-1.2-0.3-1.5,0.6-1.5,1.2s0.6,1.5,1.5,1.5 c2.1,0.3,4.5,0.3,6.9,0.9c1.2,0.3,1.8-0.6,1.8-1.5S42.3,59.5,40.8,59.2z M49.8,56.5c-2.4-0.6-4.8-0.9-7.2-1.2 c-1.2-0.3-1.8,0.3-1.8,1.2c0,0.9,0.9,1.5,1.8,1.8c2.4,0.3,4.8,0.6,7.2,0.6c1.2,0,1.8-0.6,1.8-1.5S51.3,56.8,49.8,56.5z M66.9,56.8 c-3-0.6-6-1.5-9.3-1.5c-1.2,0-1.8,0.9-1.8,1.5c0,0.9,0.6,1.5,1.8,1.8c3,0.3,5.7,0.6,9.3,1.2c1.2,0.3,1.8-0.6,1.8-1.2 S68.1,57.1,66.9,56.8z"/>
  <path fill="#5382A1" d="M18.9,78.7c0,0,12.3,3.9,26.4,3.9c14.1,0,33.3-3.6,33.3-3.6S64.5,82.6,45.3,82.6S18.9,78.7,18.9,78.7z M23.7,85.6c0,0,12.3,3,21.3,3c9,0,29.4-2.7,29.4-2.7S60,88.3,45.3,88.3C30.6,88.3,23.7,85.6,23.7,85.6z"/>
  <path fill="#EA2D2E" d="M78.6,63.4l-0.3-0.3l-0.6-0.3c-2.4-0.6-5.1-1.2-7.8-1.5c1.8-3.3,4.5-6,6.3-9c1.8-3,1.8-6.3,0.3-8.1 c-1.5-1.5-3.3-1.5-5.4-0.9c-2.1,0.6-4.2,1.8-5.4,3.3l-0.6,0.6l0.3,0.9c0.9,1.8,2.7,2.1,4.5,2.1c1.8,0,3.3-0.9,3.9-2.1 c0.3-0.6,0.3-0.9,0.3-1.2c0-0.3-0.3-0.6-0.6-0.9c-0.3-0.3-0.9-0.3-1.2-0.3c-0.6,0-1.2,0.3-1.8,1.2l-0.3,0.6l-0.6-0.3 c-2.4-1.2-3.3-3.3-2.1-5.1c0.9-1.8,3.9-3.3,6.3-2.7c2.1,0.6,3.6,2.1,3.9,4.2c0.3,2.4,0,5.4-1.8,8.4c-1.8,3.3-4.2,6.6-6,10.2l-0.3,0.6 l0.6,0.3c3.3,1.5,6,3,8.7,4.8c2.4,1.8,3.6,3.9,3.3,6c-0.3,2.4-2.4,4.2-5.1,4.8l-12.9,2.7l3,23.4l14.4-3.3l-1.8-14.7l6.3-1.2l1.8,16.5 l-22.5,5.1l-6-46.5c-3-0.6-6.3-0.9-9.6-0.9c-3.3,0-6.6,0.3-9.6,0.9l-5.7,44.7l-21-3.3l2.4-20.1l6.6,0.9l-1.8,14.4l13.2,1.8l3-22.8 l-13.8-2.1c-2.4-0.3-3.6-1.5-3-3s2.1-2.1,4.2-2.1c1.8,0,3.3,0.6,5.1,0.9c3.3,0.9,6.3,1.2,9.6,1.2c3.3,0,6.6-0.3,9.6-1.2 c1.8-0.3,3.3-0.6,5.1-0.9C76.2,65.2,78,65.2,78.6,63.4z"/>
</svg>
