<svg xmlns="http://www.w3.org/2000/svg" viewBox="0 0 100 100">
  <path fill="#5382A1" d="M54.4,85.5c-4.6,0-9,1.1-12.9,3.1c-1.8,0.9-2.6,3.1-1.7,4.9c0.9,1.8,3.1,2.6,4.9,1.7c3.1-1.6,6.5-2.4,10-2.4c3.5,0,6.9,0.8,10,2.4c1.8,0.9,4,0.1,4.9-1.7c0.9-1.8,0.1-4-1.7-4.9C63.4,86.6,59,85.5,54.4,85.5z"/>
  <path fill="#5382A1" d="M19.3,85.5c-4.6,0-9,1.1-12.9,3.1C4.6,89.5,3.8,91.7,4.7,93.5c0.9,1.8,3.1,2.6,4.9,1.7c3.1-1.6,6.5-2.4,10-2.4c3.5,0,6.9,0.8,10,2.4c1.8,0.9,4,0.1,4.9-1.7c0.9-1.8,0.1-4-1.7-4.9C28.3,86.6,23.9,85.5,19.3,85.5z"/>
  <path fill="#EA2D2E" d="M89,34.8c-2.8-5.7-8.1-9.9-14.4-11.5c1.4-1,2.6-2.1,3.5-3.5c1.1-1.7,1.1-3.7,0-5.3c-1.1-1.7-3.1-2.4-5.1-2c-2,0.4-3.7,1.7-4.5,3.5c-0.8,1.7-0.7,3.6,0.2,5.2c0.8,1.4,1.8,2.7,3.1,3.7c-5.4,1.4-10.1,4.8-12.9,9.5c-1.8,3.1-2.6,6.6-2.2,10.2c0.4,3.5,1.8,6.8,4.1,9.4l4.5,4.9l-4.2,45.9c-0.2,2,1.3,3.7,3.3,3.9c2,0.2,3.7-1.3,3.9-3.3l4.5-49l5.1-0.2l-0.2,49.1c0,2,1.6,3.6,3.6,3.6c2,0,3.6-1.6,3.6-3.6l0.2-49.1l5.2,4.8l-1.8,45c-0.1,2,1.4,3.7,3.4,3.8c2,0.1,3.7-1.4,3.8-3.4l1.9-48c0.1-1-0.2-2.1-0.9-2.9l-6.8-6.1c5.2-3.1,8.6-8.5,9.2-14.7C90.3,40.1,89.9,37.3,89,34.8z M71.8,33.5c1.8-3.1,5-5.3,8.7-6.2c-1.4,0.5-2.6,1.4-3.5,2.6c-0.8,1.2-1.2,2.6-1.1,4c0.1,1.4,0.6,2.7,1.5,3.7c0.8,1,1.9,1.7,3.1,2c-3.1-0.1-5.9,1.3-7.7,3.8c-0.9-2.4-1.3-5-1-7.7C70.1,38.1,70.7,35.7,71.8,33.5L71.8,33.5z"/>
</svg>
